<svg width="20" height="20" viewBox="0 0 20 20" fill="none" xmlns="http://www.w3.org/2000/svg">
<path fill-rule="evenodd" clip-rule="evenodd" d="M13.5563 18.3327C14.6643 18.3327 15.4081 17.6367 15.4623 16.5665L15.9969 5.68488H16.9267C17.2443 5.68488 17.5 5.42294 17.5 5.1161C17.5 4.80926 17.2443 4.55481 16.9267 4.55481H13.3858V3.43222C13.3858 2.35454 12.6343 1.66602 11.4411 1.66602H8.54339C7.35021 1.66602 6.6064 2.35454 6.6064 3.43222V4.55481H3.07335C2.76343 4.55481 2.5 4.81674 2.5 5.1161C2.5 5.42294 2.76343 5.68488 3.07335 5.68488H4.01085L4.54545 16.574C4.59969 17.6442 5.328 18.3327 6.45145 18.3327H13.5563ZM12.1539 4.5548H7.84608V3.50706C7.84608 3.08047 8.16374 2.78112 8.63636 2.78112H11.3559C11.8285 2.78112 12.1539 3.08047 12.1539 3.50706V4.5548ZM13.4323 17.2026H6.55992C6.11829 17.2026 5.78512 16.8808 5.76188 16.4393L5.21953 5.68488H14.7572L14.2459 16.4393C14.2226 16.8883 13.8972 17.2026 13.4323 17.2026ZM12.3011 15.8929C12.5568 15.8929 12.7428 15.6909 12.7505 15.4065L12.9829 7.55586C12.9907 7.27896 12.797 7.06941 12.5336 7.06941C12.2934 7.06941 12.0919 7.28644 12.0842 7.55586L11.8517 15.399C11.844 15.6759 12.0377 15.8929 12.3011 15.8929ZM7.70661 15.8929C7.97004 15.8929 8.16374 15.6759 8.15599 15.399L7.91581 7.55586C7.90806 7.28644 7.70661 7.06941 7.46643 7.06941C7.203 7.06941 7.0093 7.27896 7.01705 7.55586L7.24949 15.4065C7.25723 15.6909 7.44318 15.8929 7.70661 15.8929ZM9.99999 15.8929C10.2557 15.8929 10.4726 15.6759 10.4726 15.4065V7.55586C10.4726 7.28644 10.2557 7.06941 9.99999 7.06941C9.75206 7.06941 9.53511 7.28644 9.53511 7.55586V15.4065C9.53511 15.6759 9.75206 15.8929 9.99999 15.8929Z" fill="#7B8E98"/>
</svg>
