<svg width="32" height="32" viewBox="0 0 32 32" fill="none" xmlns="http://www.w3.org/2000/svg">
<g clip-path="url(#clip0_4083_17111)">
<path d="M24.5578 8.42809H24.3802H21.4161C18.5644 8.42809 16.2441 10.7484 16.2441 13.6001V14.8827C16.2441 17.7344 18.5644 20.0547 21.4161 20.0547H23.3519H23.5646L23.4933 20.255C23.1881 21.1118 22.9923 21.9964 22.9075 22.9002L22.8806 23.1875L22.6609 23.0003C21.8152 22.2797 20.7611 21.8599 19.6518 21.8083L19.6517 21.8083C18.9692 21.7763 18.2959 21.8811 17.663 22.1169C16.6557 22.495 15.5323 22.4949 14.5251 22.117C14.5251 22.117 14.5251 22.117 14.5251 22.117L14.5778 21.9765C13.9256 21.7335 13.2315 21.6253 12.5294 21.6585L24.5578 8.42809ZM24.5578 8.42809L24.528 8.25294C24.1649 6.1178 22.302 4.487 20.0648 4.487H11.9337C9.43721 4.487 7.40636 6.51785 7.40636 9.01438V15.6603C7.40636 16.9748 7.7111 18.2936 8.28794 19.4749L24.5578 8.42809ZM12.6094 23.381L12.6095 23.381C13.0791 23.3593 13.5411 23.4305 13.9756 23.5924L13.976 23.5925C15.3335 24.1021 16.8543 24.1021 18.2118 23.5925L18.2121 23.5923C18.6466 23.4304 19.1085 23.3592 19.5783 23.381L19.5784 23.381C21.3358 23.4628 22.7743 24.9019 22.855 26.6593C22.8989 27.6112 22.5618 28.5147 21.9061 29.2016C21.9059 29.2018 21.9057 29.2021 21.9055 29.2023L21.797 29.0987C20.907 30.0532 19.4585 30.3752 18.245 29.9054L12.6094 23.381ZM12.6094 23.381C10.8519 23.4628 9.41344 24.9019 9.33272 26.6593C9.28894 27.6112 9.62611 28.5148 10.2818 29.2017L12.6094 23.381ZM2.47123 9.65642L2.6047 9.51721L2.43692 9.42211C1.07537 8.65036 0.155371 7.1881 0.155371 5.5155V0.937235C0.155371 0.502457 0.507828 0.15 0.942606 0.15C1.37019 0.15 1.73378 0.511974 1.89576 0.969561C2.29593 2.10003 3.37566 2.91253 4.64237 2.91253H27.3576C28.6243 2.91253 29.7041 2.10003 30.1042 0.969562C30.2662 0.511974 30.6298 0.15 31.0574 0.15C31.4922 0.15 31.8446 0.502457 31.8446 0.937236V5.5155C31.8446 7.18852 30.9242 8.65109 29.5621 9.42272L29.3943 9.51778L29.5277 9.65702C30.214 10.3731 30.6359 11.3436 30.6359 12.4109V16.5262H28.5748C27.7706 16.5262 27.0216 16.2867 26.3949 15.8752L26.1697 15.7274L26.1626 15.9966C26.1248 17.4295 25.8127 18.8208 25.2332 20.1374C24.7025 21.3432 24.4333 22.623 24.4333 23.9403V26.4732H24.4203L24.4299 26.6322C24.5962 29.3955 22.1832 31.9039 19.4165 31.843L19.4165 31.843H19.4132C18.8 31.843 18.201 31.7335 17.6325 31.5175C17.1377 31.3295 16.6199 31.234 16.0939 31.234C15.5679 31.234 15.0502 31.3295 14.5553 31.5175L14.5547 31.5178C11.2269 32.8004 7.59756 30.198 7.75819 26.63L7.76525 26.4732H7.75453V23.9802C7.75453 22.6657 7.44979 21.3469 6.87307 20.1656C6.24094 18.871 5.88528 17.4355 5.83749 15.9945L5.82863 15.7273L5.60519 15.8741C4.97814 16.2863 4.22855 16.5262 3.42365 16.5262H1.36253V12.4108C1.36253 11.3433 1.7846 10.3726 2.47123 9.65642ZM1.96938 3.60179L1.72984 3.42356V3.72213V5.5155C1.72984 7.12166 3.03627 8.42809 4.64237 8.42809H5.725H5.85836L5.87397 8.29565C6.03608 6.92007 6.65769 5.68277 7.58123 4.74208L7.83167 4.487H7.47419H4.64237C3.64161 4.487 2.71657 4.15772 1.96938 3.60179ZM2.93694 14.8017V14.9517H3.08694H3.42359C4.75164 14.9517 5.83189 13.8715 5.83189 12.5434V10.1526V10.0026H5.68189H5.34523C4.01718 10.0026 2.93694 11.0828 2.93694 12.4109V14.8017ZM24.0629 18.4802H24.175L24.2068 18.3728C24.4628 17.5079 24.5921 16.613 24.5921 15.7001L24.5921 10.1526L24.5921 10.0026H24.4421H21.4161C19.4323 10.0026 17.8185 11.6163 17.8185 13.6001V14.8827C17.8185 16.8665 19.4323 18.4802 21.4161 18.4802H24.0629ZM28.9114 14.9517H29.0614V14.8017V12.4109C29.0614 11.0828 27.9812 10.0026 26.6531 10.0026H26.3165H26.1665V10.1526V12.5434C26.1665 13.8715 27.2467 14.9517 28.5748 14.9517H28.9114ZM26.1245 8.29565L26.1401 8.42809H26.2734H27.3576C28.9637 8.42809 30.2702 7.12166 30.2702 5.5155V3.72207V3.42348L30.0306 3.60173C29.2834 4.15778 28.3584 4.487 27.3576 4.487H24.5242H24.1668L24.4172 4.74208C25.3407 5.68277 25.9624 6.92001 26.1245 8.29565Z" fill="#7B8E98" stroke="white" stroke-width="0.3"/>
<path d="M20.1167 15.5398C20.1167 15.0222 20.5363 14.6025 21.0539 14.6025V14.6025C21.5716 14.6025 21.9912 15.0222 21.9912 15.5398V15.5398C21.9912 16.0575 21.5716 16.4771 21.0539 16.4771V16.4771C20.5363 16.4771 20.1167 16.0575 20.1167 15.5398V15.5398Z" fill="#7B8E98"/>
<path d="M9.99158 15.5398C9.99158 15.0222 10.4112 14.6025 10.9288 14.6025V14.6025C11.4464 14.6025 11.866 15.0222 11.866 15.5398V15.5398C11.866 16.0575 11.4464 16.4771 10.9288 16.4771V16.4771C10.4112 16.4771 9.99158 16.0575 9.99158 15.5398V15.5398Z" fill="#7B8E98"/>
<path d="M12.1938 26.6233C12.1938 26.1057 12.6135 25.686 13.1311 25.686V25.686C13.6487 25.686 14.0683 26.1057 14.0683 26.6233V26.6233C14.0683 27.141 13.6487 27.5606 13.1311 27.5606V27.5606C12.6135 27.5606 12.1938 27.141 12.1938 26.6233V26.6233Z" fill="#7B8E98"/>
<path d="M18.1196 26.6233C18.1196 26.1057 18.5392 25.686 19.0569 25.686V25.686C19.5745 25.686 19.9941 26.1057 19.9941 26.6233V26.6233C19.9941 27.141 19.5745 27.5606 19.0569 27.5606V27.5606C18.5392 27.5606 18.1196 27.141 18.1196 26.6233V26.6233Z" fill="#7B8E98"/>
</g>
<defs>
<clipPath id="clip0_4083_17111">
<rect width="32" height="32" fill="white"/>
</clipPath>
</defs>
</svg>
