<svg width="24" height="24" viewBox="0 0 24 24" fill="none" xmlns="http://www.w3.org/2000/svg">
<path fill-rule="evenodd" clip-rule="evenodd" d="M17.5167 22C19.4602 22 20.5193 20.9924 20.5193 19.0687V14.0712C21.4756 13.888 22 13.1552 22 12.0865V9.52163C22 8.2799 21.3111 7.49618 20.0463 7.49618H17.8663C18.4422 6.93639 18.7815 6.20356 18.7815 5.37913C18.7815 3.40458 17.1979 2 15.2134 2C13.7429 2 12.5296 2.80407 11.9949 4.23919C11.4602 2.80407 10.2571 2 8.78663 2C6.79177 2 5.21851 3.40458 5.21851 5.37913C5.21851 6.20356 5.54756 6.93639 6.12339 7.49618H3.95373C2.75064 7.49618 2 8.2799 2 9.52163V12.0865C2 13.1552 2.51414 13.888 3.47044 14.0712V19.0687C3.47044 20.9924 4.53985 22 6.48329 22H17.5167ZM11.1516 7.49696H9.55776C7.8611 7.49696 6.95622 6.50968 6.95622 5.45116C6.95622 4.35192 7.78912 3.70052 8.88938 3.70052C10.1542 3.70052 11.1516 4.66744 11.1516 6.28576V7.49696ZM14.4422 7.49696H12.8381V6.28576C12.8381 4.66744 13.8458 3.70052 15.1105 3.70052C16.2108 3.70052 17.0334 4.35192 17.0334 5.45116C17.0334 6.50968 16.108 7.49696 14.4422 7.49696ZM11.09 12.5758H4.37539C3.86125 12.5758 3.6556 12.3621 3.6556 11.8532V9.74632C3.6556 9.23742 3.86125 9.03385 4.37539 9.03385H11.09V12.5758ZM19.6349 12.5758H12.91V9.03385H19.6349C20.1491 9.03385 20.3444 9.23742 20.3444 9.74632V11.8532C20.3444 12.3621 20.1491 12.5758 19.6349 12.5758ZM11.09 20.4733H6.46274C5.60927 20.4733 5.12598 19.9949 5.12598 19.1501V14.112H11.09V20.4733ZM17.527 20.4733H12.91V14.112H18.8637V19.1501C18.8637 19.9949 18.3804 20.4733 17.527 20.4733Z" fill="#7B8E98"/>
</svg>
