<svg width="24" height="24" viewBox="0 0 24 24" fill="none" xmlns="http://www.w3.org/2000/svg">
<path d="M1 11.0991C1 11.477 1.29493 11.8364 1.79263 11.8364C2.05069 11.8364 2.26267 11.6982 2.45622 11.5415L3.65438 10.5276V19.3203C3.65438 20.6106 4.41936 21.3571 5.73733 21.3571H18.2074C19.5161 21.3571 20.2811 20.6106 20.2811 19.3203V10.4631L21.5622 11.5415C21.7465 11.6982 21.9585 11.8364 22.2166 11.8364C22.6498 11.8364 23 11.5691 23 11.1267C23 10.8502 22.9078 10.6659 22.7143 10.5C19.5169 7.81125 16.3006 5.14348 13.1198 2.43548C12.4378 1.85484 11.5899 1.85484 10.8986 2.43548L1.29493 10.5C1.09217 10.6659 1 10.8871 1 11.0991ZM6.05069 19.8733C5.46083 19.8733 5.13825 19.5415 5.13825 18.9424V9.28341L11.682 3.79954C11.8848 3.61521 12.1336 3.61521 12.3364 3.79954L18.7972 9.21889V18.9424C18.7972 19.5415 18.4747 19.8733 17.894 19.8733C13.5258 19.8733 10.4853 19.8733 6.05069 19.8733Z" fill="#1A1A1A"/>
</svg>
