<svg width="46" height="37" viewBox="0 0 46 37" fill="none" xmlns="http://www.w3.org/2000/svg">
<path d="M19.0914 29.6097L14.739 26.2246M14.739 26.2246C14.739 26.2246 10.2215 22.0565 8.45239 18.9709M14.739 26.2246C11.9987 26.8694 5.93774 27.3852 3.61653 24.2903M8.9361 11.2335C12.8048 8.33201 12.8048 2.04541 12.8048 2.04541M8.9361 11.2335C7.96879 12.2007 7.96829 17.0365 8.45239 18.9709M8.9361 11.2335C7.96889 11.3947 5.93773 10.8466 5.55087 7.36484M8.45239 18.9709C7.00163 19.1321 3.51981 18.6807 1.19861 15.5858" stroke="#7B8E98" stroke-width="2.2" stroke-linecap="round"/>
<path d="M24.5682 29.75L30.0694 25.8004M30.0694 25.8004C30.0694 25.8004 34.9531 21.7055 36.8657 18.6739M30.0694 25.8004C33.0319 26.4339 39.5842 26.9407 42.0936 23.9M36.3427 11.0723C32.1603 8.22172 32.1604 2.04541 32.1604 2.04541M36.3427 11.0723C37.3885 12.0225 37.389 16.7735 36.8657 18.6739M36.3427 11.0723C37.3884 11.2307 39.5842 10.6922 40.0024 7.27151M36.8657 18.6739C38.434 18.8323 42.1981 18.3889 44.7075 15.3482" stroke="#7B8E98" stroke-width="2.2" stroke-linecap="round"/>
<path d="M33.4545 35.5C33.4545 32.0357 29.2419 29.2273 24.0454 29.2273C18.8489 29.2273 14.6364 32.0357 14.6364 35.5" stroke="#7B8E98" stroke-width="2.69651" stroke-linecap="round"/>
</svg>
