<svg width="142" height="22" viewBox="0 0 142 22" fill="none" xmlns="http://www.w3.org/2000/svg">
<path fill-rule="evenodd" clip-rule="evenodd" d="M9.84041 4.9639C9.84041 7.70253 7.63386 9.9278 4.91965 9.9278C2.20321 9.9278 0 7.70477 0 4.9639C0 2.21966 2.20321 0 4.91965 0C7.63386 0 9.84041 2.21853 9.84041 4.9639ZM21.8016 4.9639C21.8016 2.21966 19.5984 0 16.8831 0C14.1689 0 11.9668 2.21966 11.9668 4.9639C11.9668 7.70253 14.1689 9.9278 16.8831 9.9278C19.5995 9.92668 21.8016 7.70365 21.8016 4.9639ZM9.84041 17.0361C9.84041 14.2952 7.63386 12.0756 4.91965 12.0756C2.20321 12.0756 0 14.2952 0 17.0361C0 19.777 2.20321 22 4.91965 22C7.63386 22 9.84041 19.7781 9.84041 17.0361ZM21.8016 17.0361C21.8016 14.2952 19.5984 12.0756 16.8831 12.0756C14.1689 12.0756 11.9668 14.2952 11.9668 17.0361C11.9668 19.777 14.1689 22 16.8831 22C19.5995 22 21.8016 19.7781 21.8016 17.0361ZM89.22 0.397461H81.7542L81.752 21.5864H89.3836C90.4669 21.5864 91.4532 21.4449 92.3472 21.1641C93.239 20.881 94.0105 20.4732 94.654 19.9363C95.2952 19.4005 95.7973 18.7523 96.1502 17.9907C96.5043 17.2314 96.6824 16.3608 96.6824 15.3846C96.6824 14.7286 96.5889 14.1277 96.4041 13.5829C96.2159 13.0347 95.9599 12.5618 95.6359 12.1563C95.3097 11.7552 94.9367 11.416 94.5159 11.1442C94.0973 10.8689 93.6576 10.678 93.1922 10.5634V10.5095C93.5618 10.3387 93.9203 10.1219 94.2643 9.85909C94.6083 9.59848 94.9122 9.28845 95.1728 8.93236C95.4344 8.5729 95.6381 8.16514 95.7862 7.70458C95.9365 7.24515 96.0122 6.72506 96.0122 6.14094C96.0122 5.27936 95.8663 4.49529 95.5758 3.79098C95.2874 3.08554 94.8599 2.4812 94.2899 1.97346C93.7221 1.46797 93.0141 1.07819 92.168 0.806345C91.3208 0.534505 90.3366 0.397461 89.22 0.397461ZM90.9122 8.43361C90.3077 8.87619 89.4983 9.09749 88.4919 9.09749H85.9436V3.99991H88.8548C89.692 3.99991 90.3978 4.19537 90.9678 4.58852C91.5378 4.98393 91.8217 5.62085 91.8217 6.50489C91.8217 7.34962 91.5189 7.99103 90.9122 8.43361ZM91.51 17.21C90.9701 17.7267 90.0371 17.984 88.7145 17.984L85.9436 17.9862V12.5427H89.0508C89.6664 12.5427 90.1774 12.6202 90.5904 12.7808C90.9968 12.9403 91.3341 13.1526 91.5969 13.4155C91.8551 13.6772 92.0433 13.9726 92.1546 14.304C92.2659 14.6343 92.3227 14.9668 92.3227 15.3071C92.3227 16.0586 92.0511 16.6933 91.51 17.21ZM107.248 19.6907L107.188 19.7117C106.518 20.5923 105.741 21.1911 104.856 21.5123C103.973 21.8302 103.111 21.9886 102.276 21.9886C101.718 21.9886 101.14 21.9145 100.542 21.7651C99.9464 21.6123 99.4042 21.3663 98.9099 21.0158C98.4189 20.6676 98.0137 20.2138 97.7086 19.6488C97.4036 19.0826 97.2489 18.3907 97.2489 17.5617C97.2489 17.1674 97.3056 16.7315 97.4158 16.2519C97.5272 15.7711 97.7877 15.3162 98.1985 14.8837C98.6048 14.4501 99.2205 14.0693 100.04 13.7402C100.857 13.4122 101.966 13.2021 103.361 13.1089L107.075 12.882V12.2046C107.075 11.3385 106.828 10.6949 106.332 10.2725C105.843 9.8479 105.148 9.63896 104.253 9.63896C103.414 9.63896 102.764 9.83329 102.299 10.2208C101.833 10.6095 101.581 11.133 101.542 11.7968H97.6908C97.7253 11.2318 97.8623 10.6511 98.0927 10.0602C98.3276 9.46934 98.7039 8.92004 99.2272 8.42242C99.746 7.92592 100.426 7.51479 101.263 7.19464C102.101 6.87787 103.155 6.71387 104.418 6.71387C105.315 6.71387 106.154 6.80485 106.935 6.98121C107.719 7.15982 108.406 7.43728 109.006 7.81134C109.6 8.18989 110.072 8.67067 110.418 9.26265C110.764 9.85127 110.937 10.5612 110.937 11.3891V19.7791C110.937 20.1565 110.956 20.4856 110.99 20.7687C111.027 21.0529 111.072 21.3247 111.127 21.5887H107.248V19.6907ZM103.725 15.5959L107.079 15.2881L107.076 16.6125C107.076 17.0461 106.96 17.4156 106.739 17.7245C106.517 18.0334 106.238 18.2884 105.901 18.4873C105.566 18.6838 105.206 18.8288 104.823 18.9231C104.444 19.0175 104.094 19.0635 103.778 19.0635C103.441 19.0635 103.124 19.0354 102.815 18.9804C102.507 18.9231 102.242 18.8288 102.019 18.6973C101.796 18.5648 101.615 18.3918 101.476 18.175C101.336 17.9593 101.267 17.692 101.267 17.3729C101.267 16.8461 101.444 16.4406 101.8 16.1609C102.153 15.8778 102.794 15.6902 103.725 15.5959ZM121.76 12.7733C121.76 12.2453 121.691 11.8039 121.551 11.4467C121.411 11.0928 121.221 10.8041 120.978 10.5885C120.737 10.3728 120.465 10.2155 120.168 10.1212C119.871 10.0279 119.561 9.98074 119.247 9.98074C118.43 9.98074 117.787 10.2964 117.321 10.9266C116.856 11.5567 116.621 12.3655 116.621 13.3619V21.5856H112.607V7.09496H116.452V8.9956H116.52C117.115 8.1138 117.765 7.51059 118.475 7.19269C119.179 6.87592 119.942 6.71191 120.761 6.71191C121.617 6.71191 122.362 6.84446 122.992 7.10956C123.621 7.36905 124.148 7.73412 124.569 8.19356C124.985 8.65299 125.291 9.18881 125.488 9.79989C125.682 10.4098 125.781 11.0625 125.781 11.7578V21.589H121.763V12.7744H121.76V12.7733ZM131.361 14.486L131.42 14.4905L135.668 21.5864H140.612L135.613 13.6345L140.414 7.10586L135.752 7.09463L131.42 13.4436L131.361 13.4447V0.397461H127.348V21.5864H131.361V14.486ZM30.3082 0.397461H26.12V21.5864H30.3082V0.397461ZM43.1645 19.5622L43.228 19.551L43.2291 21.5864H47.0711V0.397461H43.0554V9.08401H43.0009C42.3295 8.18311 41.6371 7.56192 40.9179 7.22268C40.1998 6.88457 39.376 6.71383 38.4453 6.71383C37.401 6.71383 36.4703 6.92276 35.6531 7.33502C34.8337 7.74727 34.1379 8.30668 33.5724 9.01211C33.0024 9.71531 32.5648 10.523 32.2565 11.4351C31.9503 12.3438 31.7967 13.3076 31.7967 14.3231C31.7967 15.3341 31.9581 16.3058 32.2843 17.2246C32.6105 18.1457 33.0658 18.959 33.6548 19.6622C34.2392 20.3676 34.9439 20.9315 35.7622 21.3528C36.5827 21.7751 37.4945 21.9863 38.5009 21.9863C39.4316 21.9863 40.2978 21.7987 41.0994 21.4224C41.8976 21.0461 42.5867 20.4283 43.1645 19.5622ZM42.9686 12.8033C43.12 13.3088 43.1935 13.8356 43.1935 14.3782C43.1935 14.9814 43.1133 15.543 42.9574 16.0687C42.796 16.5944 42.5633 17.0539 42.2583 17.4482C41.951 17.8436 41.577 18.1536 41.1417 18.3771C40.703 18.6029 40.1954 18.7164 39.6198 18.7164C39.0219 18.7164 38.5009 18.5996 38.0534 18.3648C37.6058 18.13 37.2284 17.8177 36.9234 17.4223C36.615 17.0292 36.3846 16.5742 36.2231 16.0575C36.0661 15.5408 35.986 15.0016 35.986 14.4377C35.986 13.8974 36.0617 13.3649 36.2098 12.8482C36.3578 12.3315 36.5838 11.8766 36.88 11.4823C37.1794 11.0869 37.5457 10.769 37.9821 10.523C38.4208 10.2781 38.9284 10.1579 39.5062 10.1579C40.1397 10.1579 40.683 10.2747 41.1394 10.5095C41.5959 10.7431 41.9789 11.0577 42.285 11.4519C42.5912 11.8462 42.8194 12.2967 42.9686 12.8033ZM52.7834 16.7562C52.6264 16.3518 52.5262 15.9317 52.4895 15.4959L62.9923 15.4936V14.3692C62.9923 13.2065 62.8119 12.1506 62.449 11.1992C62.0838 10.2534 61.5817 9.44796 60.9405 8.77847C60.2992 8.11347 59.5255 7.60124 58.6237 7.2474C57.7175 6.88794 56.7289 6.70933 55.6479 6.70933C54.5669 6.70933 53.576 6.89131 52.6732 7.2474C51.7692 7.60349 50.9977 8.11572 50.3542 8.78296C49.7118 9.45133 49.2097 10.2545 48.8468 11.2059C48.4838 12.1518 48.3035 13.211 48.3035 14.3748C48.3035 15.5397 48.4838 16.5866 48.8468 17.5178C49.2097 18.4479 49.7118 19.2466 50.3542 19.9116C50.9977 20.5799 51.7692 21.0911 52.6732 21.4483C53.576 21.8066 54.5669 21.9841 55.6479 21.9841C57.3412 21.9841 58.8096 21.6055 60.0454 20.8439C61.2856 20.0823 62.1451 18.9613 62.6293 17.4785L58.7195 17.1685C58.4389 17.7335 58.0437 18.1615 57.5327 18.4535C57.0195 18.7433 56.4561 18.8894 55.8438 18.8894C55.3005 18.8894 54.8318 18.7916 54.4288 18.5928C54.0314 18.3951 53.6963 18.1379 53.4257 17.8301C53.1563 17.5178 52.9426 17.1583 52.7834 16.7562ZM58.6927 11.8215C58.8397 12.1877 58.9332 12.5517 58.9688 12.9066H52.4895C52.5462 12.4955 52.652 12.0978 52.8112 11.7227C52.9693 11.3475 53.1864 11.0195 53.4681 10.7375C53.7475 10.4567 54.0815 10.2332 54.4722 10.0635C54.863 9.89391 55.3195 9.80854 55.8427 9.80854C56.3237 9.80854 56.7523 9.90402 57.1241 10.0916C57.4982 10.277 57.8132 10.5196 58.0749 10.8218C58.3365 11.1228 58.5413 11.4564 58.6927 11.8215ZM73.8413 19.7116L73.9026 19.6903L73.9048 21.5864H77.7824C77.7278 21.3225 77.6811 21.0506 77.6455 20.7664C77.6109 20.4833 77.5931 20.1542 77.5931 19.7768V11.3868C77.5931 10.5589 77.4195 9.84898 77.0732 9.26037C76.727 8.66838 76.2572 8.18761 75.6593 7.80905C75.0626 7.43499 74.3746 7.15753 73.5897 6.97893C72.8082 6.80257 71.971 6.71158 71.0759 6.71158C69.809 6.71158 68.758 6.87558 67.9208 7.19236C67.0814 7.5125 66.4034 7.92363 65.8813 8.42013C65.358 8.91776 64.9828 9.46706 64.7502 10.0579C64.5175 10.6488 64.3817 11.2295 64.3449 11.7946H68.1969C68.2359 11.1307 68.4864 10.6072 68.9517 10.2185C69.4171 9.83101 70.0684 9.63667 70.9067 9.63667C71.8007 9.63667 72.4942 9.84673 72.9863 10.2725C73.4795 10.6948 73.7255 11.3385 73.7255 12.2046V12.8819L70.0138 13.1088C68.6178 13.2021 67.51 13.4121 66.694 13.7401C65.8724 14.0693 65.2589 14.4501 64.8481 14.8836C64.4385 15.3161 64.1791 15.7711 64.0677 16.2518C63.9575 16.7315 63.9007 17.1673 63.9007 17.5616C63.9007 18.3906 64.0555 19.0826 64.3605 19.6487C64.6678 20.2137 65.0686 20.6676 65.5618 21.0158C66.0561 21.3663 66.5993 21.6123 67.195 21.765C67.7906 21.9144 68.3695 21.9886 68.9261 21.9886C69.7656 21.9886 70.6239 21.8302 71.5079 21.5123C72.3918 21.191 73.1689 20.5923 73.8413 19.7116ZM70.3779 15.5958L73.7289 15.288L73.7278 16.6124C73.7278 17.046 73.6153 17.4156 73.3916 17.7245C73.1689 18.0334 72.8906 18.2884 72.5521 18.4872C72.2182 18.6838 71.8586 18.8287 71.4789 18.9231C71.0982 19.0174 70.7486 19.0635 70.4313 19.0635C70.0984 19.0635 69.7767 19.0354 69.4694 18.9804C69.1599 18.9231 68.8939 18.8287 68.6723 18.6973C68.4485 18.5647 68.2671 18.3917 68.1279 18.1749C67.9876 17.9593 67.9186 17.6919 67.9186 17.3729C67.9186 16.8461 68.0956 16.4406 68.4496 16.1609C68.8026 15.8778 69.4472 15.6902 70.3779 15.5958Z" fill="url(#paint0_linear)"/>
<defs>
<linearGradient id="paint0_linear" x1="0" y1="11" x2="140.612" y2="11" gradientUnits="userSpaceOnUse">
<stop stop-color="#0093D4"/>
<stop offset="1" stop-color="#2B2A29"/>
</linearGradient>
</defs>
</svg>
