<svg width="28" height="32" viewBox="0 0 28 32" fill="none" xmlns="http://www.w3.org/2000/svg">
<path d="M24.3903 0.15H27.4539V6.0256C27.4539 7.57858 26.7908 9.02221 25.647 10.0267L25.5621 10.1012L25.6103 10.2034C26.0649 11.1677 26.3756 12.2163 26.5133 13.3235L27.3737 20.2461L27.3736 20.2461L27.374 20.2484C28.2188 26.2675 23.2043 31.9447 17.1262 31.8488V31.8487H17.1238L10.8764 31.8487L10.874 31.8488C4.79671 31.9447 -0.218714 26.2683 0.626223 20.2485L0.626515 20.2461L1.48692 13.3235L1.33816 13.305L1.48692 13.3235C1.62449 12.2163 1.93527 11.1677 2.3899 10.2034L2.43806 10.1012L2.3532 10.0267C1.20929 9.02221 0.546226 7.57858 0.546226 6.0256V0.15H3.60986C6.21774 0.15 8.39511 2.03201 8.85393 4.50941L8.88358 4.66947L9.04069 4.62686C9.90258 4.39311 10.8068 4.26873 11.7367 4.26873H16.2634C17.1932 4.26873 18.0975 4.39317 18.9594 4.62687L19.1165 4.66946L19.1461 4.50941C19.605 2.03201 21.7823 0.15 24.3903 0.15ZM2.27116 1.72493H2.12116V1.87493V6.0256C2.12116 6.98965 2.4846 7.89515 3.12365 8.58154L3.24816 8.71527L3.35508 8.5671C4.36391 7.16909 5.71114 6.03825 7.26822 5.28801L7.36194 5.24286L7.35249 5.13926C7.17821 3.22741 5.56644 1.72493 3.60986 1.72493H2.27116ZM20.6476 5.13926L20.6382 5.24286L20.7319 5.28801C22.2889 6.03825 23.6362 7.16909 24.6451 8.56705L24.752 8.71519L24.8765 8.58148C25.5155 7.89515 25.879 6.98965 25.879 6.0256V1.87493V1.72493H25.729H24.3903C22.4337 1.72493 20.8219 3.22741 20.6476 5.13926ZM17.1238 30.2738C19.6323 30.2738 22.0235 29.1956 23.6843 27.3156C25.3451 25.4356 26.1201 22.9297 25.8108 20.4403L24.9503 13.5178C24.4065 9.14269 20.6721 5.84366 16.2634 5.84366H11.7367C7.32798 5.84366 3.59353 9.14269 3.04977 13.5178L2.18968 20.438C2.18962 20.4384 2.18957 20.4388 2.18951 20.4392C1.47342 25.5465 5.72017 30.3545 10.8774 30.2738H17.1238Z" fill="#7B8E98" stroke="white" stroke-width="0.3"/>
<path d="M16.0691 19.18L16.068 19.1793C14.8325 18.3961 13.1675 18.3961 11.9319 19.1793L11.9308 19.18L11.9308 19.18L9.0295 20.9831C9.02944 20.9832 9.02938 20.9832 9.02932 20.9833C5.70484 23.0574 7.18009 28.2169 11.0988 28.2324C11.0988 28.2324 11.0989 28.2324 11.099 28.2324H16.9009C16.901 28.2324 16.9011 28.2324 16.9011 28.2324C20.822 28.2163 22.2936 23.0561 18.9707 20.9833L16.0691 19.18ZM16.0691 19.18L18.9705 20.9831L16.0691 19.18ZM16.9015 26.6575L16.9021 26.6575C19.2457 26.6483 20.1305 23.5631 18.1395 22.321L18.1393 22.3209L15.2389 20.5183C15.2387 20.5182 15.2385 20.5181 15.2383 20.518C14.4968 20.0483 13.5031 20.0482 12.7616 20.5179C12.7614 20.5181 12.7612 20.5182 12.761 20.5183L9.86065 22.3209L9.86045 22.321C7.87039 23.5622 8.7529 26.6479 11.0978 26.6575H11.0984L16.9015 26.6575Z" fill="#7B8E98" stroke="white" stroke-width="0.3"/>
<path d="M8.06238 15.1963C8.06238 14.6786 8.4821 14.2588 8.99985 14.2588V14.2588C9.51759 14.2588 9.93731 14.6786 9.93731 15.1963V15.1963C9.93731 15.7141 9.51759 16.1338 8.99985 16.1338V16.1338C8.4821 16.1338 8.06238 15.7141 8.06238 15.1963V15.1963Z" fill="#7B8E98"/>
<path d="M13.0624 23.946C13.0624 23.4282 12.6427 23.0084 12.1249 23.0084V23.0084C11.6072 23.0084 11.1875 23.4282 11.1875 23.946V23.946C11.1875 24.4637 11.6072 24.8835 12.1249 24.8835V24.8835C12.6427 24.8835 13.0624 24.4637 13.0624 23.946V23.946Z" fill="#7B8E98"/>
<path d="M16.8125 23.946C16.8125 23.4282 16.3928 23.0084 15.8751 23.0084V23.0084C15.3573 23.0084 14.9376 23.4282 14.9376 23.946V23.946C14.9376 24.4637 15.3573 24.8835 15.8751 24.8835V24.8835C16.3928 24.8835 16.8125 24.4637 16.8125 23.946V23.946Z" fill="#7B8E98"/>
<path d="M19.9376 15.1963C19.9376 14.6786 19.5179 14.2588 19.0001 14.2588V14.2588C18.4824 14.2588 18.0627 14.6786 18.0627 15.1963V15.1963C18.0627 15.7141 18.4824 16.1338 19.0001 16.1338V16.1338C19.5179 16.1338 19.9376 15.7141 19.9376 15.1963V15.1963Z" fill="#7B8E98"/>
</svg>
