<svg width="32" height="30" viewBox="0 0 32 30" fill="none" xmlns="http://www.w3.org/2000/svg">
<path d="M24.2875 5.775V5.625C24.2875 3.64009 22.6724 2.025 20.6875 2.025C20.4065 2.025 20.1282 2.05936 19.8542 2.12761L19.7548 2.15238L19.6956 2.0688C18.8542 0.881707 17.4787 0.15 16 0.15C14.5213 0.15 13.1458 0.881769 12.3044 2.0688L12.2452 2.1524L12.1458 2.1276C11.8719 2.0593 11.5935 2.025 11.3125 2.025C9.32759 2.025 7.7125 3.64009 7.7125 5.625V5.775H7.5625H6.625C3.05344 5.775 0.15 8.65312 0.15 12.1875C0.15 12.6224 0.502593 12.975 0.9375 12.975H7.5625H7.7125V13.125V21.5625C7.7125 26.1318 11.43 29.8496 15.9992 29.85C15.9997 29.85 16.0003 29.85 16.0008 29.85M24.2875 5.775L16.0008 29.8501C16.0063 29.8501 16.0106 29.8504 16.0127 29.8506L16.0123 29.8506C16.0102 29.8504 16.006 29.8501 16.0008 29.85M24.2875 5.775H24.4375M24.2875 5.775H24.4375M16.0008 29.85C20.57 29.8495 24.2875 26.1318 24.2875 21.5625V13.125M16.0008 29.85L24.2875 13.125M24.4375 5.775H25.375C28.9466 5.775 31.85 8.65312 31.85 12.1875C31.85 12.6224 31.4974 12.975 31.0625 12.975H24.4375H24.2875M24.4375 5.775L24.2875 12.975M24.2875 12.975V13.125M24.2875 12.975V13.125M12.8522 3.8796L12.8522 3.8796C12.6485 3.95001 12.4249 3.93384 12.2335 3.83498C11.9342 3.68037 11.6241 3.6 11.3125 3.6C10.1958 3.6 9.2875 4.50828 9.2875 5.625C9.2875 6.40154 9.74007 7.11878 10.4412 7.45372L10.4413 7.45374C10.6037 7.53131 10.7347 7.66234 10.8124 7.82491L10.9478 7.76025L10.8124 7.82491C11.0448 8.31128 11.1625 8.83248 11.1625 9.375C11.1625 10.4917 12.0708 11.4 13.1875 11.4C14.3042 11.4 15.2125 10.4917 15.2125 9.375C15.2125 8.94009 15.5651 8.5875 16 8.5875C16.4349 8.5875 16.7875 8.94009 16.7875 9.375C16.7875 10.4917 17.6958 11.4 18.8125 11.4C19.9292 11.4 20.8375 10.4917 20.8375 9.375C20.8375 8.83248 20.9552 8.31128 21.1876 7.82491L21.1876 7.82487C21.2652 7.66238 21.3962 7.53138 21.5588 7.45373C22.2599 7.11884 22.7125 6.40153 22.7125 5.625C22.7125 4.50828 21.8042 3.6 20.6875 3.6C20.3759 3.6 20.0659 3.68037 19.7666 3.83498C19.5751 3.9339 19.3515 3.95001 19.1479 3.87967L19.1479 3.87966C18.9443 3.80931 18.7783 3.65858 18.6888 3.46262L18.5524 3.52494L18.6888 3.46261C18.2068 2.40748 17.152 1.725 16 1.725C14.848 1.725 13.7933 2.40748 13.3113 3.46254L13.3112 3.46256C13.2217 3.65853 13.0558 3.80925 12.8522 3.8796ZM12.9012 4.02138C13.1436 3.93763 13.3411 3.75819 13.4477 3.52488L12.1647 3.96825C12.3926 4.08594 12.6587 4.10519 12.9012 4.02138ZM1.82354 11.2197L1.78628 11.4H1.97044H7.5625C8.67922 11.4 9.5875 10.4917 9.5875 9.375C9.5875 9.17088 9.55792 8.97164 9.49907 8.78012L9.48244 8.72601L9.4342 8.69638C8.94565 8.39627 8.54051 7.98481 8.24618 7.50489L8.21667 7.45678L8.16277 7.44005C7.96963 7.38011 7.76856 7.35 7.5625 7.35H6.625C4.25978 7.35 2.27933 9.01324 1.82354 11.2197ZM16.7875 28.0578V28.2308L16.9588 28.2062C20.2075 27.7395 22.7125 24.9386 22.7125 21.5625V12.6205V12.5341L22.6377 12.4907C22.2989 12.2943 21.9951 12.0444 21.7375 11.7522L21.625 11.6246L21.5125 11.7522C20.8519 12.5016 19.8867 12.975 18.8125 12.975C17.7383 12.975 16.7731 12.5016 16.1125 11.7522L16 11.6246L15.8875 11.7522C15.2269 12.5016 14.2617 12.975 13.1875 12.975C12.1133 12.975 11.1481 12.5016 10.4875 11.7522L10.375 11.6246L10.2625 11.7522C10.0049 12.0444 9.70106 12.2943 9.36225 12.4907L9.2875 12.5341V12.6205V21.5625C9.2875 24.9386 11.7925 27.7395 15.0412 28.2062L15.2125 28.2308V28.0578V25.7008V25.6387L15.1686 25.5947L13.5681 23.9943C13.2606 23.6868 13.2606 23.1882 13.5681 22.8806C13.8757 22.5731 14.3743 22.5731 14.6818 22.8806L14.7879 22.7746L14.6818 22.8806L15.8939 24.0928L16 24.1988L16.1061 24.0928L17.3181 22.8807C17.6257 22.5731 18.1243 22.5732 18.4318 22.8807L18.5379 22.7746L18.4318 22.8807C18.7394 23.1882 18.7394 23.6868 18.4318 23.9944L16.8314 25.5947L16.7875 25.6387V25.7008V28.0578ZM22.5658 8.69637L22.5176 8.726L22.5009 8.78012C22.4421 8.97164 22.4125 9.17088 22.4125 9.375C22.4125 10.4917 23.3208 11.4 24.4375 11.4H30.0296H30.2137L30.1765 11.2197C29.7207 9.01323 27.7402 7.35 25.375 7.35H24.4375C24.2314 7.35 24.0304 7.38011 23.8372 7.44005L23.7833 7.45678L23.7538 7.5049C23.4595 7.98488 23.0543 8.39633 22.5658 8.69637ZM16.016 29.8509L16.0157 29.8509C16.0162 29.851 16.0165 29.851 16.0163 29.851L16.0162 29.851L16.016 29.8509Z" fill="#7B8E98" stroke="white" stroke-width="0.3"/>
</svg>
