<svg width="20" height="20" viewBox="0 0 20 20" fill="none" xmlns="http://www.w3.org/2000/svg">
<path fill-rule="evenodd" clip-rule="evenodd" d="M16.4291 0C17.5839 0 18.7244 0.831839 19.1177 1.94514L19.1687 2.10603L19.9922 6.0297L20 6.14345V8.00516C20 8.99327 19.4651 9.88257 18.6388 10.3498L18.4693 10.4371L18.4694 17.625C18.4694 18.827 17.5826 19.8241 16.4352 19.9791L16.2772 19.9949L16.123 20H3.87713C2.63415 20 1.61531 19.0176 1.53579 17.7809L1.53079 17.625L1.53073 10.4371L1.51966 10.4324C0.711644 10.045 0.146412 9.26893 0.0246002 8.37045L0.00620951 8.1892L0 8.00516V6.14345C0 6.09266 0.00466938 6.04202 0.0127406 5.99693L0.83521 2.08998C1.15198 0.96645 2.25431 0.0835409 3.40611 0.00559783L3.57091 0H16.4291ZM15.5102 9.93756L15.4285 10.0169C14.9503 10.4453 14.3312 10.6905 13.6737 10.6905C13.0163 10.6905 12.3972 10.4453 11.919 10.0169L11.8361 9.93756L11.7547 10.0169C11.3244 10.4025 10.7799 10.6396 10.196 10.6832L10 10.6905C9.34256 10.6905 8.72343 10.4453 8.24525 10.0169L8.16293 9.93756L8.08103 10.0169C7.65064 10.4025 7.10603 10.6396 6.52212 10.6832L6.32613 10.6905C5.66874 10.6905 5.04973 10.4454 4.57148 10.0169L4.48878 9.93756L4.39377 10.0288C4.09145 10.2959 3.73282 10.4911 3.34358 10.5976L3.16098 10.64L3.16189 17.625C3.16189 17.9937 3.43226 18.2985 3.7804 18.3467L3.87713 18.3533H16.123C16.4836 18.3533 16.7841 18.0792 16.8316 17.7238L16.8381 17.625L16.838 10.64L16.6564 10.5976C16.2672 10.4911 15.9086 10.2959 15.6062 10.0288L15.5102 9.93756ZM7.34732 6.96585H5.30439L5.30482 8.00516C5.30482 8.54019 5.70479 8.98131 6.21518 9.03775L6.32613 9.04385C6.85093 9.04385 7.28591 8.63842 7.34157 8.11827L7.34759 8.00516L7.34732 6.96585ZM11.0205 6.96585H8.97854L8.97869 8.00516C8.97869 8.54019 9.37866 8.98131 9.88905 9.03775L10 9.04385C10.5247 9.04385 10.9596 8.6384 11.0153 8.11827L11.0213 8.00516L11.0205 6.96585ZM14.6946 6.96585H12.6517L12.6524 8.00516C12.6524 8.54019 13.0524 8.98131 13.5628 9.03775L13.6737 9.04385C14.1985 9.04385 14.6334 8.63845 14.689 8.11828L14.695 8.00516L14.6946 6.96585ZM3.67317 6.96585H1.63024L1.6311 8.00516C1.6311 8.54019 2.03107 8.98131 2.54146 9.03775L2.65241 9.04385C3.17718 9.04385 3.61205 8.63845 3.66771 8.11828L3.67372 8.00516L3.67317 6.96585ZM18.3688 6.96585H16.3259L16.3263 8.00532C16.3263 8.54027 16.7262 8.98132 17.2366 9.03775L17.3476 9.04385C17.8723 9.04385 18.3072 8.63842 18.3629 8.1184L18.3689 8.00532L18.3688 6.96585ZM16.4291 1.64666H3.57091C3.13147 1.64666 2.62108 2.01112 2.44551 2.41826L2.40883 2.52075L1.86829 5.32H18.1307L17.5959 2.54072C17.4746 2.11031 16.9886 1.7127 16.5402 1.65408L16.4291 1.64666Z" fill="#1A1A1A"/>
</svg>
